<?xml version="1.0" encoding="iso-8859-1"?>
<!-- Uploaded to: SVG Repo, www.svgrepo.com, Generator: SVG Repo Mixer Tools -->
<svg fill="#000000" height="800px" width="800px" version="1.1" id="Capa_1" xmlns="http://www.w3.org/2000/svg" xmlns:xlink="http://www.w3.org/1999/xlink" 
	 viewBox="0 0 490.019 490.019" xml:space="preserve">
<g>
	<g>
		<g>
			<g>
				<path d="M481.393,422.301c-8.4-7.3-22-5.2-28.3,4.2c-11.5,14.6-25.1,22.9-39.8,22.9c-14.6,0-28.1-8.3-39.6-22.7
					c-1.3-1.7-15.4-17.9-32.9-0.2c-11.5,14.6-25.1,22.9-39.8,22.9c-14.7,0-28.3-8.3-39.8-22.9l0,0c-9.2-13-26.5-9.4-32.7,0
					c-11.5,14.6-25.1,22.9-39.8,22.9c-14.6,0-28.1-8.3-39.6-22.7c-1.3-1.7-15.4-17.9-32.9-0.2c-11.5,14.6-25.1,22.9-39.8,22.9
					s-28.4-8.4-40-23c-6.3-9.4-18.9-10.4-28.3-4.2c-9.4,6.3-10.4,18.8-4.1,28.2c19.9,25,45,39.6,73.3,39.6c20.8,0,40.4-7.9,56-21.9
					c16.5,14.1,35.6,21.9,56.4,21.9s40.4-7.9,56-22c16.5,14.1,35.6,22,56.4,22s40.4-7.9,56-21.9c16.5,14.1,35.6,21.9,56.4,21.9
					c28.3,0,54.5-14.6,71.2-39.6C492.893,442.101,490.793,428.501,481.393,422.301z"/>
			</g>
		</g>
		<g>
			<g>
				<path d="M481.393,283.001c-8.4-7.3-22-5.2-28.3,4.2c-11.5,14.6-25.1,22.9-39.8,22.9c-14.6,0-28.1-8.3-39.6-22.7
					c-1.3-1.7-15.4-17.9-32.9-0.2c-11.5,14.6-25.1,22.9-39.8,22.9c-14.7,0-28.3-8.3-39.8-22.9l0,0c-9.2-13-26.5-9.4-32.7,0
					c-11.5,14.6-25.1,22.9-39.8,22.9c-14.6,0-28.1-8.3-39.6-22.7c-1.3-1.7-15.4-17.9-32.9-0.2c-11.5,14.6-25.1,22.9-39.8,22.9
					s-28.3-8.3-39.8-22.9c-6.3-9.4-18.9-10.4-28.3-4.2c-9.4,6.3-10.5,18.8-4.2,28.1c19.9,25,45,39.6,73.3,39.6
					c20.8,0,40.4-7.9,56-21.9c16.5,14.1,35.6,21.9,56.4,21.9s40.4-7.9,56-22c16.5,14.1,35.6,22,56.4,22s40.4-7.9,56-21.9
					c16.5,14.1,35.6,21.9,56.4,21.9c28.3,0,54.5-14.6,71.2-39.6C492.893,302.801,490.793,289.201,481.393,283.001z"/>
			</g>
		</g>
		<g>
			<g>
				<path d="M481.393,143.701c-8.4-7.3-22-5.2-28.3,4.2c-11.5,14.6-25.1,22.9-39.8,22.9c-14.6,0-28.1-8.3-39.6-22.7
					c-1.3-1.7-15.4-17.9-32.9-0.2c-11.5,14.6-25.1,22.9-39.8,22.9c-14.7,0-28.3-8.3-39.8-22.9l0,0c-9.2-13-26.5-9.4-32.7,0
					c-11.5,14.6-25.1,22.9-39.8,22.9c-14.6,0-28.1-8.3-39.6-22.7c-1.3-1.7-15.4-17.9-32.9-0.2c-11.5,14.6-25.1,22.9-39.8,22.9
					s-28.3-8.3-39.8-22.9c-6.3-9.4-18.9-10.4-28.3-4.2c-9.4,6.3-10.5,18.8-4.2,28.1c19.9,25,45,39.6,73.3,39.6
					c20.8,0,40.4-7.9,56-21.9c16.5,14.1,35.6,21.9,56.4,21.9s40.4-7.9,56-22c16.5,14.1,35.6,22,56.4,22s40.4-7.9,56-21.9
					c16.5,14.1,35.6,21.9,56.4,21.9c28.3,0,54.5-14.6,71.2-39.6C492.893,163.501,490.793,149.901,481.393,143.701z"/>
			</g>
		</g>
		<g>
			<g>
				<path d="M481.393,4.401c-8.4-7.3-22-5.2-28.3,4.2c-11.5,14.6-25.1,22.9-39.8,22.9c-14.6,0-28.1-8.3-39.6-22.7
					c-1.3-1.7-15.4-17.9-32.9-0.2c-11.5,14.6-25.1,22.9-39.8,22.9c-14.7,0-28.3-8.3-39.8-22.9l0,0c-9.2-13-26.5-9.4-32.7,0
					c-11.5,14.6-25.1,22.9-39.8,22.9c-14.6,0-28.1-8.3-39.6-22.7c-1.3-1.7-15.4-17.9-32.9-0.2c-11.5,14.6-25.1,22.9-39.8,22.9
					s-28.4-8.4-40-22.9c-6.3-9.4-18.9-10.4-28.3-4.2s-10.4,18.7-4.1,28.1c19.9,25,45,39.6,73.3,39.6c20.8,0,40.4-7.9,56-21.9
					c16.5,14.1,35.6,21.9,56.4,21.9s40.4-7.9,56-22c16.5,14.1,35.6,22,56.4,22s40.4-7.9,56-21.9c16.5,14.1,35.6,21.9,56.4,21.9
					c28.3,0,54.5-14.6,71.2-39.6C492.893,24.201,490.793,10.601,481.393,4.401z"/>
			</g>
		</g>
	</g>
</g>
</svg>