<?xml version="1.0" encoding="utf-8"?><svg version="1.1" id="Layer_1" xmlns="http://www.w3.org/2000/svg" xmlns:xlink="http://www.w3.org/1999/xlink" x="0px" y="0px" viewBox="0 0 122.88 99.93" style="enable-background:new 0 0 122.88 99.93" xml:space="preserve"><style type="text/css">.st0{fill-rule:evenodd;clip-rule:evenodd;}</style><g><path class="st0" d="M111.28,8.12l9.86,4.45c1.91,0.86,2.74,1.04-0.07,1.88l-8.93,2.68c-0.09,0.47-0.18,0.95-0.27,1.44 c-0.38,1.94-0.78,4.01-0.77,6.15c0.01,0.99,0.09,1.99,0.23,2.99c0.15,1.03,0.34,2.03,0.58,3c0.03,0.11,0.04,0.23,0.05,0.34l0,0 c0.68,12.2-2.39,21.71-8.85,28.79c-6.04,6.64-15.01,11.06-26.59,13.49l1.68,9.95h8.17c1.23,0,2.24,1,2.24,2.23 c0,1.23-1,2.24-2.24,2.24H69.92c-1.23,0-2.24-1-2.24-2.24c0-1.23,1-2.23,2.24-2.23h3.75l-1.61-9.58 c-4.49-0.11-8.75,0.03-12.78,0.43c-4.59,0.45-8.89,1.23-12.89,2.35C33.1,80.22,26.77,86.6,18.27,95.17l-0.12,0.12 c-0.52,0.53-1.02,1.07-1.45,1.55c-2.7,2.98-3.67,4.04-8.99,2.15c-0.79-0.28-1.54-0.63-2.23-1.04c-0.69-0.4-1.31-0.86-1.87-1.37 c-1.25-1.15-2.15-2.53-2.74-4.11C0.32,90.96,0.04,89.28,0,87.46c-0.01-0.75,0.41-1.41,1.03-1.73l0,0 c6.52-3.38,12.6-7.34,18.24-11.89c5.63-4.55,10.82-9.69,15.58-15.43l0.03-0.04c6.13-7.94,15.36-16.3,24.14-24.26 C68.56,25.45,77.56,17.3,81.13,11c1.5-4.52,4.28-7.52,7.6-9.23c2.06-1.06,4.32-1.62,6.61-1.74c2.25-0.12,4.52,0.2,6.65,0.88 C105.93,2.16,109.39,4.7,111.28,8.12L111.28,8.12z M98.85,8.46c1.61,0,2.91,1.3,2.91,2.91c0,1.61-1.3,2.91-2.91,2.91 c-1.61,0-2.91-1.3-2.91-2.91C95.94,9.76,97.24,8.46,98.85,8.46L98.85,8.46z M37.23,61.51c6.08-0.33,13.18-1.18,17.99-3.09 c8.39-3.33,14.59-11.45,20.66-18.67c0.94-1.11,6.18-7.5,7.68-6.27c0.36,0.3,0.18,1.25-0.68,3.04c-7.37,10-12.73,18.95-22.13,24.2 c-8.59,4.79-18.28,5.05-27.74,5.53c-3.56,3.8-7.34,7.31-11.34,10.54c-5.52,4.46-11.44,8.37-17.78,11.74 c0.09,0.94,0.28,1.81,0.57,2.59c0.38,1.02,0.95,1.9,1.74,2.63c0.35,0.32,0.76,0.62,1.22,0.89c0.45,0.27,0.98,0.51,1.59,0.72 c2.91,1.04,3.43,0.47,4.87-1.11c0.43-0.47,0.92-1.01,1.57-1.67l0.12-0.12c8.91-8.98,15.53-15.67,29.79-19.67 c4.2-1.18,8.73-2,13.57-2.47c4.74-0.46,9.77-0.59,15.09-0.39c11.64-2.18,20.51-6.33,26.28-12.67c5.72-6.28,8.45-14.82,7.87-25.86 c-0.25-1.06-0.46-2.12-0.61-3.17c-0.16-1.13-0.26-2.29-0.26-3.49c-0.02-2.58,0.42-4.82,0.83-6.91c0.57-2.9,1.07-5.47-0.06-7.67 c-1.37-2.65-4.07-4.64-7.21-5.64c-1.69-0.54-3.51-0.79-5.3-0.7c-1.76,0.09-3.49,0.52-5.05,1.32c-2.52,1.3-4.63,3.62-5.77,7.18 l0,0.01l0,0c-0.04,0.12-0.09,0.23-0.15,0.34c-3.81,6.86-13.11,15.29-22.97,24.22c-8.65,7.84-17.74,16.07-23.68,23.77 c-0.03,0.05-0.07,0.09-0.1,0.14C37.61,61.06,37.42,61.29,37.23,61.51L37.23,61.51z"/></g></svg>